<svg xmlns="http://www.w3.org/2000/svg" xmlns:xlink="http://www.w3.org/1999/xlink" viewBox="0,0,256,256" width="512px" height="512px" fill-rule="nonzero"><g transform="translate(-35.55556,-35.55556) scale(1.27778,1.27778)"><g fill-opacity="0.98039" fill="#ffffff" fill-rule="nonzero" stroke="none" stroke-width="1" stroke-linecap="butt" stroke-linejoin="miter" stroke-miterlimit="10" stroke-dasharray="" stroke-dashoffset="0" font-family="none" font-weight="none" font-size="none" text-anchor="none" style="mix-blend-mode: normal"><path d="M27.82609,228.17391v-200.34783h200.34783v200.34783z" id="bgRectangle"></path></g><g fill="none" fill-rule="nonzero" stroke="#0eca26" stroke-width="7.11111" stroke-linecap="butt" stroke-linejoin="miter" stroke-miterlimit="10" stroke-dasharray="" stroke-dashoffset="0" font-family="none" font-weight="none" font-size="none" text-anchor="none" style="mix-blend-mode: normal"><path d="M55.34902,223.5934c-12.67075,0 -22.94242,-10.27167 -22.94242,-22.94242v-145.30196c0,-12.67075 10.27167,-22.94242 22.94242,-22.94242h145.30196c12.67075,0 22.94242,10.27167 22.94242,22.94242v145.30196c0,12.67075 -10.27167,22.94242 -22.94242,22.94242z" id="shape"></path></g><g fill-opacity="0.98824" fill="#1e1d1d" fill-rule="nonzero" stroke="none" stroke-width="1" stroke-linecap="butt" stroke-linejoin="miter" stroke-miterlimit="10" stroke-dasharray="" stroke-dashoffset="0" font-family="none" font-weight="none" font-size="none" text-anchor="none" style="mix-blend-mode: normal"><g transform="scale(3.55556,3.55556)"><path d="M36,12c-13.255,0 -24,10.745 -24,24c0,4.435 1.20769,8.58539 3.30469,12.15039l-3.07031,11.50586l12.06836,-2.70117c3.462,1.936 7.44927,3.04492 11.69727,3.04492c13.255,0 24,-10.745 24,-24c0,-13.255 -10.745,-24 -24,-24zM36,20c8.837,0 16,7.163 16,16c0,8.837 -7.163,16 -16,16c-3.853,0 -7.38644,-1.36286 -10.14844,-3.63086l-2.52344,0.56445l0.64258,-2.40625c-2.465,-2.814 -3.9707,-6.49134 -3.9707,-10.52734c0,-8.837 7.163,-16 16,-16zM28.83398,26.85742c-0.341,0 -0.88752,0.123 -1.35352,0.625c-0.458,0.502 -1.76562,1.70978 -1.76562,4.17578c0,2.458 1.80655,4.83997 2.06055,5.16797c0.254,0.336 3.50234,5.55359 8.65234,7.55859c4.27,1.662 5.14117,1.33209 6.07617,1.24609c0.927,-0.08 2.99502,-1.208 3.41602,-2.375c0.421,-1.169 0.42102,-2.17086 0.29102,-2.38086c-0.129,-0.203 -0.46075,-0.32713 -0.96875,-0.57812c-0.508,-0.25 -2.99689,-1.46391 -3.46289,-1.62891c-0.461,-0.165 -0.80081,-0.252 -1.13281,0.25c-0.341,0.501 -1.30837,1.63098 -1.60937,1.95898c-0.292,0.337 -0.5838,0.376 -1.0918,0.125c-0.508,-0.251 -2.14122,-0.77737 -4.07422,-2.48437c-1.503,-1.323 -2.51655,-2.95994 -2.81055,-3.46094c-0.294,-0.501 -0.0333,-0.77439 0.2207,-1.02539c0.23,-0.219 0.50772,-0.57914 0.76172,-0.86914c0.245,-0.298 0.333,-0.50284 0.5,-0.83984c0.175,-0.328 0.08694,-0.62595 -0.03906,-0.87695c-0.126,-0.251 -1.10955,-2.72394 -1.56055,-3.71094c-0.38,-0.83 -0.77662,-0.85528 -1.14062,-0.86328c-0.295,-0.015 -0.63675,-0.01367 -0.96875,-0.01367z"></path></g></g></g></svg>